<?xml version="1.0" encoding="UTF-8" standalone="no"?>
<!-- Created with Inkscape (http://www.inkscape.org/) -->

<svg
   xmlns:dc="http://purl.org/dc/elements/1.1/"
   xmlns:cc="http://creativecommons.org/ns#"
   xmlns:rdf="http://www.w3.org/1999/02/22-rdf-syntax-ns#"
   xmlns:svg="http://www.w3.org/2000/svg"
   xmlns="http://www.w3.org/2000/svg"
   xmlns:sodipodi="http://sodipodi.sourceforge.net/DTD/sodipodi-0.dtd"
   xmlns:inkscape="http://www.inkscape.org/namespaces/inkscape"
   width="135.94771mm"
   height="137.93788mm"
   viewBox="0 0 481.70448 488.75627"
   id="svg2"
   version="1.1"
   inkscape:version="0.91 r13725"
   sodipodi:docname="cookie_stroke.svg">
  <defs
     id="defs4" />
  <sodipodi:namedview
     id="base"
     pagecolor="#ffffff"
     bordercolor="#666666"
     borderopacity="1.0"
     inkscape:pageopacity="0.0"
     inkscape:pageshadow="2"
     inkscape:zoom="0.49497475"
     inkscape:cx="392.8549"
     inkscape:cy="306.44045"
     inkscape:document-units="px"
     inkscape:current-layer="layer2"
     showgrid="false"
     inkscape:window-width="1366"
     inkscape:window-height="705"
     inkscape:window-x="-8"
     inkscape:window-y="-8"
     inkscape:window-maximized="1"
     fit-margin-top="0"
     fit-margin-left="0"
     fit-margin-right="0"
     fit-margin-bottom="0" />
  <metadata
     id="metadata7">
    <rdf:RDF>
      <cc:Work
         rdf:about="">
        <dc:format>image/svg+xml</dc:format>
        <dc:type
           rdf:resource="http://purl.org/dc/dcmitype/StillImage" />
        <dc:title />
      </cc:Work>
    </rdf:RDF>
  </metadata>
  <g
     inkscape:label="Layer 1"
     inkscape:groupmode="layer"
     id="layer1"
     transform="translate(-58.666709,-113.00738)"
     sodipodi:insensitive="true">
    <path
       style="fill:#000000;fill-opacity:0;fill-rule:evenodd;stroke:#000000;stroke-width:20;stroke-linecap:round;stroke-linejoin:miter;stroke-miterlimit:4;stroke-dasharray:none;stroke-opacity:1"
       id="path3336"
       sodipodi:type="arc"
       sodipodi:cx="303.04578"
       sodipodi:cy="357.37726"
       sodipodi:rx="234.35539"
       sodipodi:ry="234.35539"
       sodipodi:start="0.24617539"
       sodipodi:end="4.8184276"
       d="M 530.33572,414.48883 A 234.35539,234.35539 0 0 1 256.60986,587.08611 234.35539,234.35539 0 0 1 71.419159,321.71832 234.35539,234.35539 0 0 1 327.84995,124.3382"
       sodipodi:open="true" />
    <path
       style="fill:#000000;fill-opacity:0;fill-rule:evenodd;stroke:#000000;stroke-width:20.00870514;stroke-linecap:round;stroke-linejoin:miter;stroke-miterlimit:4;stroke-dasharray:none;stroke-opacity:1"
       id="path3336-1"
       sodipodi:type="arc"
       sodipodi:cx="264.77927"
       sodipodi:cy="305.39096"
       sodipodi:rx="69.769112"
       sodipodi:ry="71.286224"
       sodipodi:start="2.4742096"
       sodipodi:end="4.505401"
       d="M 209.97953,349.51233 A 69.769112,71.286224 0 0 1 199.19741,281.0668 69.769112,71.286224 0 0 1 250.4408,235.62639"
       transform="matrix(0.93212797,-0.36212905,0.40068859,0.91621431,0,0)"
       sodipodi:open="true" />
    <path
       style="fill:#000000;fill-opacity:0;fill-rule:evenodd;stroke:#000000;stroke-width:20.10289764;stroke-linecap:round;stroke-linejoin:miter;stroke-miterlimit:4;stroke-dasharray:none;stroke-opacity:1"
       id="path3336-1-1"
       sodipodi:type="arc"
       sodipodi:cx="-119.61419"
       sodipodi:cy="597.11346"
       sodipodi:rx="71.213188"
       sodipodi:ry="73.247673"
       sodipodi:start="2.056716"
       sodipodi:end="4.5472789"
       d="m -152.8723,661.88241 a 71.213188,73.247673 0 0 1 -37.04089,-76.4679 71.213188,73.247673 0 0 1 58.59434,-60.55257"
       transform="matrix(0.46664707,-0.88444361,0.90685744,0.42143751,0,0)"
       sodipodi:open="true" />
    <path
       style="fill:#000000;fill-opacity:0;fill-rule:evenodd;stroke:#000000;stroke-width:19.13740349;stroke-linecap:round;stroke-linejoin:miter;stroke-miterlimit:4;stroke-dasharray:none;stroke-opacity:1"
       id="path3336-1-1-3"
       sodipodi:type="arc"
       sodipodi:cx="-71.420166"
       sodipodi:cy="485.38834"
       sodipodi:rx="67.262955"
       sodipodi:ry="70.279236"
       sodipodi:start="2.5112297"
       sodipodi:end="4.6372548"
       d="m -125.7561,526.81359 a 67.262955,70.279236 0 0 1 -6.72928,-70.89177 67.262955,70.279236 0 0 1 56.016221,-40.61444"
       sodipodi:open="true"
       transform="matrix(0.49951325,-0.86630625,0.90104132,0.43373327,0,0)" />
    <path
       style="fill:#000000;fill-opacity:1;stroke-width:20;stroke-linejoin:miter;stroke-miterlimit:4;stroke-dasharray:none"
       id="path4189"
       sodipodi:type="arc"
       sodipodi:cx="220.21323"
       sodipodi:cy="246.37181"
       sodipodi:rx="24.24366"
       sodipodi:ry="24.24366"
       sodipodi:start="4.7616095"
       sodipodi:end="4.6372526"
       d="m 221.40603,222.15751 a 24.24366,24.24366 0 0 1 23.04687,24.65385 24.24366,24.24366 0 0 1 -23.92553,23.80208 24.24366,24.24366 0 0 1 -24.53429,-23.17411 24.24366,24.24366 0 0 1 22.40028,-25.24278"
       sodipodi:open="true" />
    <path
       style="fill:#000000;fill-opacity:1;stroke-width:20;stroke-linejoin:miter;stroke-miterlimit:4;stroke-dasharray:none"
       id="path4189-7"
       sodipodi:type="arc"
       sodipodi:cx="178.8074"
       sodipodi:cy="364.42325"
       sodipodi:rx="41.426659"
       sodipodi:ry="41.426659"
       sodipodi:start="4.7616095"
       sodipodi:end="4.6372526"
       d="m 180.84562,323.04676 a 41.426659,41.426659 0 0 1 39.38163,42.12757 41.426659,41.426659 0 0 1 -40.88306,40.6721 41.426659,41.426659 0 0 1 -41.92326,-39.59905 41.426659,41.426659 0 0 1 38.27675,-43.13391"
       sodipodi:open="true" />
    <path
       style="fill:#000000;fill-opacity:1;stroke-width:20;stroke-linejoin:miter;stroke-miterlimit:4;stroke-dasharray:none"
       id="path4189-7-3"
       sodipodi:type="arc"
       sodipodi:cx="281.82828"
       sodipodi:cy="334.12296"
       sodipodi:rx="34.351307"
       sodipodi:ry="34.351307"
       sodipodi:start="4.7616095"
       sodipodi:end="4.6372526"
       d="m 283.51838,299.81325 a 34.351307,34.351307 0 0 1 32.65556,34.9325 34.351307,34.351307 0 0 1 -33.90055,33.72563 34.351307,34.351307 0 0 1 -34.7631,-32.83584 34.351307,34.351307 0 0 1 31.73938,-35.76697"
       sodipodi:open="true" />
    <path
       style="fill:#000000;fill-opacity:1;stroke-width:20;stroke-linejoin:miter;stroke-miterlimit:4;stroke-dasharray:none"
       id="path4189-7-3-5"
       sodipodi:type="arc"
       sodipodi:cx="358.61087"
       sodipodi:cy="459.37515"
       sodipodi:rx="45.469719"
       sodipodi:ry="45.469719"
       sodipodi:start="4.7616095"
       sodipodi:end="4.6372526"
       d="m 360.84801,413.9605 a 45.469719,45.469719 0 0 1 43.22511,46.23903 45.469719,45.469719 0 0 1 -44.87307,44.64152 45.469719,45.469719 0 0 1 -46.0148,-43.46373 45.469719,45.469719 0 0 1 42.0124,-47.3436"
       sodipodi:open="true" />
    <path
       style="fill:#000000;fill-opacity:1;stroke-width:20;stroke-linejoin:miter;stroke-miterlimit:4;stroke-dasharray:none"
       id="path4189-6"
       sodipodi:type="arc"
       sodipodi:cx="218.19295"
       sodipodi:cy="463.84702"
       sodipodi:rx="24.24366"
       sodipodi:ry="24.24366"
       sodipodi:start="4.7616095"
       sodipodi:end="4.6372526"
       d="m 219.38575,439.63272 a 24.24366,24.24366 0 0 1 23.04687,24.65384 24.24366,24.24366 0 0 1 -23.92553,23.80208 24.24366,24.24366 0 0 1 -24.53429,-23.17411 24.24366,24.24366 0 0 1 22.40028,-25.24277"
       sodipodi:open="true" />
  </g>
  <g
     inkscape:groupmode="layer"
     id="layer2"
     inkscape:label="Layer 2">
    <path
       style="fill:none;fill-rule:evenodd;stroke:#000000;stroke-width:20;stroke-linecap:butt;stroke-linejoin:round;stroke-miterlimit:4;stroke-dasharray:none;stroke-opacity:1"
       d="m 379.57197,57.718703 c -16.80853,-4.876497 -77.48993,4.028638 -77.48993,4.028638 l 13.25708,55.595259 c 47.28498,42.86172 78.78564,-53.416374 64.23285,-59.623897 z"
       id="path4145"
       inkscape:connector-curvature="0"
       sodipodi:nodetypes="cccc" />
    <path
       sodipodi:nodetypes="cccc"
       inkscape:connector-curvature="0"
       id="path4149"
       d="m 423.85714,153.75625 c -11.4267,13.2566 -28.57143,72.14287 -28.57143,72.14287 l 56.07144,11.07143 c 23.29004,-16.95523 -15.80128,-93.86589 -27.50001,-83.2143 z"
       style="fill:none;fill-rule:evenodd;stroke:#000000;stroke-width:20;stroke-linecap:butt;stroke-linejoin:round;stroke-miterlimit:4;stroke-dasharray:none;stroke-opacity:1" />
  </g>
</svg>
